<svg xmlns="http://www.w3.org/2000/svg" xmlns:xlink="http://www.w3.org/1999/xlink" preserveAspectRatio="xMidYMid" width="80" height="29" viewBox="0 0 80 29">
  <defs>
    <style>

      .cls-3 {
        fill: #3a3a3a;
      }

      .cls-4 {
        fill: #f34949;
      }
    </style>
  </defs>
  <g id="logosahpesvg">
    <path d="M67.074,18.620 C66.394,21.739 64.674,23.059 58.875,26.018 C58.795,26.058 58.435,26.098 57.755,26.178 C56.995,27.058 55.955,27.498 54.556,27.498 C53.876,27.498 53.436,27.418 53.276,27.298 C53.276,27.298 51.796,26.058 51.796,26.058 C51.756,26.058 51.716,26.058 51.676,26.058 C50.036,26.058 50.116,23.459 49.916,23.179 C50.036,22.979 50.116,22.819 50.116,22.699 C50.116,22.539 49.877,22.299 49.877,22.179 C49.877,21.699 50.116,20.459 50.116,19.979 C50.316,19.939 51.116,19.659 51.116,19.140 C51.116,18.980 50.916,18.260 50.916,18.140 C51.956,17.260 51.956,16.900 53.356,14.660 C53.996,13.660 59.195,8.501 59.755,8.501 C59.915,8.501 60.275,8.621 60.435,8.621 C60.635,8.621 60.995,8.261 61.515,7.502 C61.635,7.541 61.914,7.781 62.354,8.141 C62.354,8.141 63.554,8.421 63.554,8.421 C63.874,8.581 64.354,8.781 64.994,9.021 C67.633,9.021 67.953,12.261 67.953,14.940 C67.953,16.260 67.673,17.460 67.074,18.620 ZM63.474,13.980 C63.314,13.940 63.154,13.820 63.034,13.700 C63.114,13.580 63.154,13.460 63.154,13.261 C63.154,12.781 62.834,11.981 62.394,11.981 C62.034,11.981 61.195,12.541 59.875,13.700 C56.715,16.460 55.476,18.300 54.036,20.139 C53.876,20.299 53.196,22.339 53.196,22.619 C53.196,23.059 53.796,23.699 54.236,23.699 C55.715,23.699 57.395,23.059 59.235,21.819 C59.675,21.699 60.155,21.499 60.755,21.179 C60.955,20.979 61.355,20.219 61.994,18.980 C62.154,18.660 62.634,16.140 62.994,15.940 C62.994,15.020 63.154,14.540 63.474,14.420 C63.474,14.420 63.474,13.980 63.474,13.980 ZM55.434,10.181 C55.434,10.181 55.674,10.181 55.674,10.181 C55.794,10.141 55.874,10.141 55.914,10.141 C55.714,10.541 53.834,11.221 53.674,11.341 C53.314,11.341 53.474,11.981 52.075,12.301 C51.875,12.861 50.315,12.661 47.835,14.020 C47.515,14.860 47.355,15.340 46.196,17.500 C46.196,17.780 45.996,18.260 45.556,18.939 C45.556,18.939 45.276,19.739 45.276,19.739 C45.276,19.859 45.236,20.059 45.156,20.259 C44.796,20.859 44.036,23.059 43.796,23.219 C43.596,23.659 43.476,24.019 43.476,24.339 C43.516,24.619 43.516,24.819 43.516,24.978 C43.516,25.138 43.516,25.258 43.476,25.339 C43.276,25.538 42.836,27.538 41.836,28.698 C41.716,27.858 41.676,27.018 41.676,26.178 C41.716,25.898 41.756,25.498 41.836,24.978 C41.756,24.899 41.676,24.779 41.596,24.579 C41.596,24.259 41.796,23.539 41.796,23.219 C41.756,23.139 41.716,23.019 41.676,22.899 C41.676,22.659 41.836,19.699 43.196,16.780 C43.236,16.500 43.436,15.660 44.196,14.140 C44.196,13.884 43.593,13.227 42.347,11.806 C40.983,12.786 38.395,14.670 38.395,17.100 C38.395,17.180 38.595,18.260 38.995,20.339 C38.995,20.339 39.595,23.579 39.595,23.579 C39.595,23.819 39.395,24.459 38.995,25.498 C38.115,27.818 37.836,27.378 37.556,27.378 C36.476,27.378 35.316,27.418 33.596,26.938 C32.996,25.938 31.197,26.178 30.317,23.459 C30.284,23.362 30.238,23.281 30.181,23.213 C28.802,24.549 26.344,26.418 23.236,26.418 C21.476,26.418 19.157,23.979 17.997,22.539 C17.675,22.129 17.412,21.654 17.196,21.157 C16.745,20.987 16.245,20.797 15.715,20.539 C15.715,20.539 14.995,20.299 14.995,20.299 C14.395,20.099 13.155,19.499 11.355,18.580 C11.355,18.580 11.115,18.460 11.115,18.460 C10.275,18.100 9.276,17.620 8.116,17.100 C8.116,17.100 7.276,16.820 7.276,16.820 C7.276,16.820 6.916,16.940 6.916,16.940 C6.076,17.460 5.476,17.980 4.356,18.180 C4.356,18.180 4.236,18.700 4.236,18.700 C4.236,18.700 4.236,19.020 4.236,19.020 C4.236,19.659 3.837,20.459 3.557,21.259 C3.557,21.259 3.557,21.379 3.557,21.379 C3.557,21.539 3.077,23.179 3.077,23.179 C3.077,23.179 3.077,23.219 3.077,23.219 C2.717,23.819 2.677,23.979 2.157,24.819 C2.157,24.819 1.837,25.138 1.837,25.138 C1.797,25.179 1.637,25.179 1.397,25.179 C1.357,25.179 0.797,24.899 0.197,24.059 C0.197,24.059 0.117,23.979 0.117,23.979 C0.117,23.979 0.117,23.419 0.117,23.419 C0.077,23.379 0.037,23.339 -0.003,23.219 C-0.003,23.219 -0.003,21.579 -0.003,21.579 C0.037,21.459 0.037,21.339 0.037,21.179 C0.037,21.019 0.037,20.859 -0.003,20.699 C0.157,20.219 0.237,19.300 0.317,18.460 C0.317,18.420 0.317,18.420 0.317,18.380 C0.317,18.100 0.437,17.580 0.637,16.860 C1.197,14.860 0.877,15.340 1.237,13.980 C1.797,11.901 1.957,10.781 2.837,7.901 C2.837,7.901 2.837,7.661 2.837,7.661 C2.877,7.581 2.957,7.461 3.037,7.301 C3.037,7.301 3.037,7.021 3.037,7.021 C3.037,6.742 3.197,6.222 3.517,5.502 C3.677,5.142 3.517,4.702 5.556,4.182 C5.676,4.222 5.796,4.222 5.956,4.262 C5.956,4.262 6.436,4.262 6.436,4.262 C6.556,4.222 6.716,4.182 6.996,4.142 C7.596,3.782 10.995,1.942 11.875,1.942 C11.835,1.942 13.715,1.542 14.195,1.542 C14.755,1.542 15.355,1.662 16.114,1.942 C15.915,1.782 18.634,2.942 18.634,5.822 C18.634,6.342 18.594,6.742 18.474,6.982 C18.474,6.982 18.474,7.102 18.474,7.102 C17.794,8.781 18.194,8.221 13.595,11.381 C13.715,11.301 11.035,12.701 11.035,13.141 C11.035,13.220 11.075,13.261 11.115,13.261 C11.115,13.261 10.755,13.580 10.755,13.580 C10.555,13.620 10.475,13.860 10.475,14.260 C10.475,14.260 10.475,14.460 10.475,14.460 C10.395,14.460 10.355,14.580 10.355,14.860 C10.355,14.860 10.315,14.900 10.315,14.900 C10.315,15.093 12.003,15.807 16.407,18.201 C16.345,17.736 16.317,17.335 16.317,17.060 C16.477,16.740 16.637,16.140 16.837,15.300 C16.837,14.860 17.317,15.220 17.677,13.700 C18.397,13.261 17.877,12.821 19.157,11.781 C19.157,11.781 19.877,11.181 19.877,11.181 C20.277,10.661 20.917,9.941 21.836,9.021 C21.836,9.021 23.076,8.341 23.076,8.341 C23.516,8.141 23.756,7.821 23.836,7.421 C23.836,7.421 24.156,7.421 24.156,7.421 C24.316,7.421 24.836,7.981 25.036,8.021 C26.836,8.301 27.795,8.461 27.835,8.461 C29.595,8.901 32.075,10.861 32.075,12.341 C32.075,17.220 25.676,17.740 25.076,17.740 C23.036,17.740 21.756,17.500 21.156,17.020 C20.416,18.234 19.942,19.248 19.745,20.052 C19.870,20.122 19.986,20.187 20.114,20.259 C20.487,20.521 20.582,21.158 20.690,21.242 C20.690,21.242 20.634,21.299 20.634,21.299 C20.518,21.415 20.214,21.449 19.949,21.564 C20.021,21.679 20.102,21.803 20.197,21.939 C20.917,22.939 20.957,22.939 22.396,23.099 C22.596,23.219 23.036,23.699 24.196,23.699 C24.821,23.699 25.690,23.498 26.769,23.083 C28.254,22.043 30.639,20.868 30.877,20.779 C32.876,19.219 34.996,17.820 35.996,16.020 C35.996,15.500 36.036,14.700 36.076,13.540 C36.076,13.261 36.516,12.061 37.396,10.021 C37.875,8.901 38.155,7.941 38.195,7.141 C38.675,6.782 39.395,6.182 40.355,5.382 C40.235,5.262 43.195,7.661 44.194,7.661 C44.274,7.661 44.354,7.661 44.434,7.661 C44.434,7.661 44.434,8.181 44.434,8.181 C44.434,8.923 44.198,9.629 43.772,10.305 C44.271,10.330 44.842,10.366 45.516,10.421 C45.796,10.141 45.836,9.941 46.436,8.701 C46.436,7.981 46.836,7.661 47.795,4.462 C48.355,3.902 48.675,2.342 48.995,0.743 C48.995,0.743 49.315,0.743 49.315,0.743 C49.315,0.743 49.355,0.743 49.355,0.743 C49.515,0.743 50.475,-0.217 50.795,0.063 C50.955,0.063 51.795,0.623 51.955,0.623 C52.195,0.623 52.675,1.622 52.795,1.822 C52.795,1.822 52.515,2.222 52.515,2.222 C52.475,2.502 52.355,2.822 52.195,3.222 C51.075,5.342 50.595,7.261 49.595,9.541 C49.595,9.501 49.635,9.501 49.635,9.501 C49.675,9.501 49.715,9.621 49.795,9.861 C50.355,9.941 50.875,9.981 51.395,9.981 C53.155,9.981 53.914,9.781 56.314,9.141 C56.314,9.141 56.594,9.141 56.594,9.141 C56.554,9.261 55.274,9.861 55.114,10.021 C55.154,10.141 55.274,10.181 55.434,10.181 ZM13.995,7.541 C14.955,6.582 15.395,5.102 15.395,5.062 C15.315,5.062 14.835,4.902 14.435,4.822 C14.635,4.622 12.355,5.422 11.715,5.422 C11.355,5.702 10.795,5.742 8.476,7.342 C8.156,7.541 7.716,8.421 6.796,10.381 C6.516,11.541 6.356,12.141 6.356,12.141 C7.116,11.941 7.916,11.741 9.316,11.141 C9.916,10.741 10.236,11.301 13.995,7.541 ZM22.036,16.380 C22.316,16.380 22.956,16.060 24.036,15.380 C26.676,13.700 26.676,12.661 26.956,11.741 C26.636,11.421 26.396,11.261 26.236,11.261 C26.236,11.261 25.076,11.981 25.076,11.981 C23.036,13.141 22.436,14.500 21.197,16.140 C21.716,16.300 21.996,16.380 22.036,16.380 ZM37.076,21.459 C37.076,20.779 36.716,19.540 35.996,17.740 C35.996,17.740 31.648,21.089 31.648,21.089 C31.587,21.340 31.506,21.610 31.395,21.899 C31.367,21.927 31.276,22.039 31.136,22.201 C31.303,22.268 31.455,22.299 31.597,22.299 C31.797,22.299 32.356,22.059 32.556,22.059 C32.716,22.059 33.196,22.619 33.396,22.619 C33.516,22.619 33.636,22.499 33.796,22.499 C34.156,22.499 36.196,23.259 36.636,23.259 C36.796,23.259 37.036,23.139 37.076,23.139 C37.076,23.139 37.076,21.459 37.076,21.459 ZM20.714,21.259 C20.706,21.259 20.698,21.248 20.690,21.242 C20.690,21.242 20.714,21.219 20.714,21.219 C20.714,21.259 20.714,21.259 20.714,21.259 Z" id="path-1" class="cls-3" fill-rule="evenodd"/>
    <path d="M79.796,22.299 C79.796,22.299 79.956,22.819 79.956,22.819 C79.956,22.819 79.876,23.459 79.876,23.459 C79.876,23.459 79.956,23.739 79.956,23.739 C79.956,23.739 79.756,23.659 79.756,23.659 C79.756,23.659 79.756,23.739 79.756,23.739 C79.756,23.739 79.796,23.939 79.796,23.939 C79.796,23.939 79.316,24.219 79.316,24.219 C79.316,24.219 78.676,24.379 78.676,24.379 C78.676,24.379 78.316,24.858 78.316,24.858 C78.316,24.858 77.596,24.779 77.596,24.779 C77.596,24.779 77.476,24.779 77.476,24.779 C77.476,24.779 76.476,24.459 76.476,24.459 C76.476,24.459 75.477,23.819 75.477,23.819 C75.477,23.819 75.197,23.459 75.197,23.459 C75.197,23.459 74.837,23.379 74.837,23.379 C74.837,23.379 74.917,23.259 74.917,23.259 C74.917,23.259 74.729,23.034 74.729,23.034 C74.729,23.034 74.676,23.459 74.676,23.459 C74.676,23.459 74.756,23.739 74.756,23.739 C74.756,23.739 74.556,23.659 74.556,23.659 C74.556,23.659 74.556,23.739 74.556,23.739 C74.556,23.739 74.596,23.939 74.596,23.939 C74.596,23.939 74.117,24.219 74.117,24.219 C74.117,24.219 73.477,24.379 73.477,24.379 C73.477,24.379 73.117,24.858 73.117,24.858 C73.117,24.858 72.397,24.779 72.397,24.779 C72.397,24.779 72.277,24.779 72.277,24.779 C72.277,24.779 71.277,24.459 71.277,24.459 C71.277,24.459 70.277,23.819 70.277,23.819 C70.277,23.819 69.997,23.459 69.997,23.459 C69.997,23.459 69.637,23.379 69.637,23.379 C69.637,23.379 69.717,23.259 69.717,23.259 C69.717,23.259 69.517,23.019 69.517,23.019 C69.517,23.019 69.517,22.739 69.517,22.739 C69.517,22.739 68.877,22.379 68.877,22.379 C68.877,22.379 68.437,22.179 68.437,22.179 C68.437,22.179 68.517,21.939 68.517,21.939 C68.517,21.939 68.597,21.939 68.597,21.939 C68.597,21.939 68.597,21.739 68.597,21.739 C68.597,21.739 68.717,21.539 68.717,21.539 C68.717,21.539 68.637,21.259 68.637,21.259 C68.637,21.259 68.797,21.099 68.797,21.099 C68.797,21.099 68.997,21.099 68.997,21.099 C68.997,21.099 68.877,20.819 68.877,20.819 C68.877,20.819 69.077,20.699 69.077,20.699 C69.077,20.699 68.917,20.179 68.917,20.179 C68.917,20.179 69.077,20.139 69.077,20.139 C69.077,20.139 69.357,20.179 69.357,20.179 C69.357,20.179 69.437,20.139 69.437,20.139 C69.437,20.139 69.437,19.979 69.437,19.979 C69.437,19.979 69.717,19.619 69.717,19.619 C69.717,19.619 69.997,19.420 69.997,19.420 C69.997,19.420 70.357,19.180 70.357,19.180 C70.357,19.180 71.557,19.699 71.557,19.699 C71.557,19.699 71.757,19.699 71.757,19.699 C71.757,19.699 71.837,19.619 71.837,19.619 C71.837,19.619 71.837,19.420 71.837,19.420 C71.837,19.420 72.277,19.339 72.277,19.339 C72.277,19.339 72.117,19.699 72.117,19.699 C72.117,19.699 72.277,19.899 72.277,19.899 C72.277,19.899 72.317,19.979 72.317,19.979 C72.317,19.979 72.397,19.899 72.397,19.899 C72.397,19.899 72.397,19.699 72.397,19.699 C72.397,19.699 72.557,19.699 72.557,19.699 C72.557,19.699 72.837,20.139 72.837,20.139 C72.837,20.139 73.037,19.979 73.037,19.979 C73.037,19.979 73.197,20.059 73.197,20.059 C73.197,20.059 73.677,21.019 73.677,21.019 C73.677,21.019 73.917,20.819 73.917,20.819 C73.917,20.819 74.036,20.899 74.036,20.899 C74.036,20.899 74.196,21.099 74.196,21.099 C74.196,21.099 74.197,21.099 74.197,21.099 C74.197,21.099 74.077,20.819 74.077,20.819 C74.077,20.819 74.277,20.699 74.277,20.699 C74.277,20.699 74.117,20.179 74.117,20.179 C74.117,20.179 74.277,20.139 74.277,20.139 C74.277,20.139 74.557,20.179 74.557,20.179 C74.557,20.179 74.637,20.139 74.637,20.139 C74.637,20.139 74.637,19.979 74.637,19.979 C74.637,19.979 74.917,19.619 74.917,19.619 C74.917,19.619 75.197,19.420 75.197,19.420 C75.197,19.420 75.557,19.180 75.557,19.180 C75.557,19.180 76.756,19.699 76.756,19.699 C76.756,19.699 76.956,19.699 76.956,19.699 C76.956,19.699 77.036,19.619 77.036,19.619 C77.036,19.619 77.036,19.420 77.036,19.420 C77.036,19.420 77.476,19.339 77.476,19.339 C77.476,19.339 77.316,19.699 77.316,19.699 C77.316,19.699 77.476,19.899 77.476,19.899 C77.476,19.899 77.516,19.979 77.516,19.979 C77.516,19.979 77.596,19.899 77.596,19.899 C77.596,19.899 77.596,19.699 77.596,19.699 C77.596,19.699 77.756,19.699 77.756,19.699 C77.756,19.699 78.036,20.139 78.036,20.139 C78.036,20.139 78.236,19.979 78.236,19.979 C78.236,19.979 78.396,20.059 78.396,20.059 C78.396,20.059 78.876,21.019 78.876,21.019 C78.876,21.019 79.116,20.819 79.116,20.819 C79.116,20.819 79.236,20.899 79.236,20.899 C79.236,20.899 79.396,21.099 79.396,21.099 C79.396,21.099 79.756,21.539 79.756,21.539 C79.756,21.539 79.796,21.619 79.796,21.619 C79.796,21.619 79.756,21.899 79.756,21.899 C79.756,21.899 79.876,22.179 79.876,22.179 C79.876,22.179 79.756,22.179 79.756,22.179 C79.756,22.179 79.756,22.299 79.756,22.299 C79.756,22.299 79.796,22.299 79.796,22.299 Z" id="path-2" class="cls-4" fill-rule="evenodd"/>
  </g>
</svg>
