<svg xmlns="http://www.w3.org/2000/svg" xmlns:xlink="http://www.w3.org/1999/xlink" preserveAspectRatio="xMidYMid" width="16" height="28" viewBox="0 0 16 28">
  <defs>
    <style>

      .cls-3 {
        fill: #ebde3b;
      }

      .cls-4 {
        fill: #dddddd;
      }
    </style>
  </defs>
  <g id="ratingsvg">
    <path d="M9.388,19.216 C8.494,16.853 7.854,15.117 7.468,14.007 C7.468,14.007 5.608,19.216 5.608,19.216 C4.528,19.242 3.268,19.275 1.828,19.314 C0.708,19.353 0.094,19.372 -0.012,19.372 C-0.012,19.372 4.508,22.682 4.508,22.682 C3.454,26.142 2.921,27.912 2.908,27.990 C5.948,25.874 7.488,24.817 7.528,24.817 C7.528,24.817 12.168,27.931 12.168,27.931 C11.621,26.208 11.074,24.445 10.528,22.643 C12.514,21.155 14.001,20.038 14.988,19.294 C13.287,19.314 10.966,19.822 9.194,19.444 C9.388,19.216 9.388,19.216 9.388,19.216 Z" id="path-1" class="cls-3" fill-rule="evenodd"/>
    <path d="M8.760,5.216 C7.926,2.853 7.329,1.117 6.968,0.007 C6.968,0.007 5.232,5.216 5.232,5.216 C4.224,5.242 3.048,5.275 1.704,5.314 C0.658,5.353 0.086,5.372 -0.013,5.372 C-0.013,5.372 4.205,8.682 4.205,8.682 C3.222,12.142 2.724,13.912 2.712,13.990 C5.549,11.874 6.987,10.817 7.024,10.817 C7.024,10.817 11.355,13.931 11.355,13.931 C10.844,12.208 10.334,10.445 9.824,8.643 C11.678,7.155 13.065,6.038 13.987,5.294 C12.456,5.242 10.713,5.216 8.760,5.216 C8.760,5.216 8.760,5.216 8.760,5.216 Z" id="path-2" class="cls-4" fill-rule="evenodd"/>
  </g>
</svg>
