<svg xmlns="http://www.w3.org/2000/svg" xmlns:xlink="http://www.w3.org/1999/xlink" preserveAspectRatio="xMidYMid" width="98" height="27" viewBox="0 0 98 27">
  <defs>
    <style>

      .cls-2 {
        fill: #ffffff;
      }
    </style>
  </defs>
  <path d="M92.344,6.649 C92.344,6.649 92.344,11.360 92.344,11.360 C92.344,11.360 90.351,11.360 90.351,11.360 C90.351,11.360 90.351,6.649 90.351,6.649 C90.351,6.649 85.676,6.649 85.676,6.649 C85.676,6.649 85.676,4.680 85.676,4.680 C85.676,4.680 90.351,4.680 90.351,4.680 C90.351,4.680 90.351,0.004 90.351,0.004 C90.351,0.004 92.344,0.004 92.344,0.004 C92.344,0.004 92.344,4.680 92.344,4.680 C92.344,4.680 97.019,4.680 97.019,4.680 C97.019,4.680 97.019,6.649 97.019,6.649 C97.019,6.649 92.344,6.649 92.344,6.649 ZM74.531,21.155 C74.609,22.523 74.995,23.569 75.691,24.296 C76.386,25.022 77.253,25.386 78.292,25.386 C79.066,25.386 79.726,25.183 80.273,24.776 C80.820,24.370 81.253,23.722 81.574,22.831 C81.574,22.831 83.753,23.101 83.753,23.101 C83.409,24.374 82.773,25.362 81.843,26.065 C80.913,26.768 79.726,27.120 78.281,27.120 C76.460,27.120 75.017,26.560 73.950,25.438 C72.884,24.317 72.351,22.745 72.351,20.722 C72.351,18.628 72.890,17.003 73.968,15.847 C75.046,14.691 76.445,14.112 78.163,14.112 C79.827,14.112 81.187,14.679 82.241,15.811 C83.296,16.944 83.824,18.538 83.824,20.593 C83.824,20.718 83.820,20.905 83.812,21.155 C83.812,21.155 74.531,21.155 74.531,21.155 ZM80.800,17.066 C80.128,16.253 79.257,15.847 78.187,15.847 C77.218,15.847 76.404,16.171 75.743,16.819 C75.083,17.468 74.718,18.335 74.648,19.421 C74.648,19.421 81.597,19.421 81.597,19.421 C81.503,18.374 81.238,17.589 80.800,17.066 ZM64.991,26.839 C64.991,26.839 60.257,14.394 60.257,14.394 C60.257,14.394 62.483,14.394 62.483,14.394 C62.483,14.394 65.155,21.847 65.155,21.847 C65.444,22.651 65.710,23.487 65.952,24.355 C66.139,23.698 66.401,22.909 66.737,21.987 C66.737,21.987 69.503,14.394 69.503,14.394 C69.503,14.394 71.671,14.394 71.671,14.394 C71.671,14.394 66.960,26.839 66.960,26.839 C66.960,26.839 64.991,26.839 64.991,26.839 ZM56.694,14.394 C56.694,14.394 58.803,14.394 58.803,14.394 C58.803,14.394 58.803,26.839 58.803,26.839 C58.803,26.839 56.694,26.839 56.694,26.839 C56.694,26.839 56.694,14.394 56.694,14.394 ZM56.694,9.659 C56.694,9.659 58.803,9.659 58.803,9.659 C58.803,9.659 58.803,12.085 58.803,12.085 C58.803,12.085 56.694,12.085 56.694,12.085 C56.694,12.085 56.694,9.659 56.694,9.659 ZM52.029,26.640 C51.607,26.398 51.310,26.079 51.139,25.685 C50.967,25.290 50.881,24.460 50.881,23.194 C50.881,23.194 50.881,16.034 50.881,16.034 C50.881,16.034 49.334,16.034 49.334,16.034 C49.334,16.034 49.334,14.394 49.334,14.394 C49.334,14.394 50.881,14.394 50.881,14.394 C50.881,14.394 50.881,11.311 50.881,11.311 C50.881,11.311 52.978,10.046 52.978,10.046 C52.978,10.046 52.978,14.394 52.978,14.394 C52.978,14.394 55.100,14.394 55.100,14.394 C55.100,14.394 55.100,16.034 55.100,16.034 C55.100,16.034 52.978,16.034 52.978,16.034 C52.978,16.034 52.978,23.311 52.978,23.311 C52.978,23.913 53.015,24.300 53.090,24.472 C53.164,24.644 53.285,24.780 53.453,24.882 C53.621,24.983 53.861,25.034 54.174,25.034 C54.408,25.034 54.717,25.007 55.100,24.952 C55.100,24.952 55.404,26.815 55.404,26.815 C54.810,26.940 54.279,27.003 53.810,27.003 C53.045,27.003 52.451,26.882 52.029,26.640 ZM45.747,25.304 C44.966,25.968 44.214,26.437 43.492,26.710 C42.769,26.983 41.993,27.120 41.165,27.120 C39.798,27.120 38.747,26.786 38.013,26.118 C37.279,25.450 36.912,24.597 36.912,23.558 C36.912,22.948 37.050,22.392 37.328,21.888 C37.605,21.384 37.968,20.980 38.417,20.675 C38.866,20.370 39.372,20.140 39.935,19.983 C40.349,19.874 40.974,19.769 41.810,19.667 C43.513,19.464 44.767,19.222 45.572,18.940 C45.579,18.651 45.583,18.468 45.583,18.390 C45.583,17.530 45.384,16.925 44.986,16.573 C44.447,16.097 43.646,15.858 42.583,15.858 C41.591,15.858 40.859,16.032 40.386,16.380 C39.913,16.728 39.564,17.343 39.337,18.226 C39.337,18.226 37.275,17.944 37.275,17.944 C37.462,17.062 37.771,16.349 38.201,15.806 C38.630,15.263 39.251,14.845 40.064,14.552 C40.876,14.259 41.818,14.112 42.888,14.112 C43.950,14.112 44.814,14.237 45.478,14.487 C46.142,14.737 46.630,15.052 46.943,15.431 C47.255,15.810 47.474,16.288 47.599,16.866 C47.669,17.226 47.704,17.874 47.704,18.811 C47.704,18.811 47.704,21.624 47.704,21.624 C47.704,23.585 47.749,24.825 47.839,25.345 C47.929,25.864 48.107,26.362 48.372,26.839 C48.372,26.839 46.169,26.839 46.169,26.839 C45.951,26.401 45.810,25.890 45.747,25.304 ZM45.572,20.593 C44.806,20.905 43.657,21.171 42.126,21.390 C41.259,21.515 40.646,21.655 40.287,21.812 C39.927,21.968 39.650,22.196 39.454,22.497 C39.259,22.798 39.161,23.132 39.161,23.499 C39.161,24.062 39.374,24.530 39.800,24.905 C40.226,25.280 40.849,25.468 41.669,25.468 C42.482,25.468 43.204,25.290 43.837,24.935 C44.470,24.579 44.935,24.093 45.232,23.476 C45.458,22.999 45.572,22.296 45.572,21.366 C45.572,21.366 45.572,20.593 45.572,20.593 ZM26.235,21.155 C26.313,22.523 26.700,23.569 27.395,24.296 C28.091,25.022 28.958,25.386 29.997,25.386 C30.770,25.386 31.431,25.183 31.977,24.776 C32.524,24.370 32.958,23.722 33.278,22.831 C33.278,22.831 35.458,23.101 35.458,23.101 C35.114,24.374 34.477,25.362 33.548,26.065 C32.618,26.768 31.431,27.120 29.985,27.120 C28.165,27.120 26.722,26.560 25.655,25.438 C24.589,24.317 24.056,22.745 24.056,20.722 C24.056,18.628 24.595,17.003 25.673,15.847 C26.751,14.691 28.149,14.112 29.868,14.112 C31.532,14.112 32.892,14.679 33.946,15.811 C35.001,16.944 35.528,18.538 35.528,20.593 C35.528,20.718 35.524,20.905 35.517,21.155 C35.517,21.155 26.235,21.155 26.235,21.155 ZM32.505,17.066 C31.833,16.253 30.962,15.847 29.892,15.847 C28.923,15.847 28.108,16.171 27.448,16.819 C26.788,17.468 26.423,18.335 26.352,19.421 C26.352,19.421 33.302,19.421 33.302,19.421 C33.208,18.374 32.942,17.589 32.505,17.066 ZM21.711,16.292 C21.250,16.292 20.836,16.431 20.469,16.708 C20.102,16.985 19.840,17.370 19.684,17.862 C19.450,18.612 19.332,19.433 19.332,20.323 C19.332,20.323 19.332,26.839 19.332,26.839 C19.332,26.839 17.223,26.839 17.223,26.839 C17.223,26.839 17.223,14.394 17.223,14.394 C17.223,14.394 19.122,14.394 19.122,14.394 C19.122,14.394 19.122,16.280 19.122,16.280 C19.606,15.398 20.053,14.816 20.463,14.534 C20.873,14.253 21.325,14.112 21.817,14.112 C22.528,14.112 23.250,14.339 23.985,14.792 C23.985,14.792 23.258,16.749 23.258,16.749 C22.743,16.444 22.227,16.292 21.711,16.292 ZM4.977,24.378 C5.875,24.917 6.847,25.187 7.894,25.187 C9.168,25.187 10.246,24.819 11.129,24.085 C12.012,23.351 12.609,22.261 12.922,20.815 C12.922,20.815 15.195,21.390 15.195,21.390 C14.719,23.257 13.861,24.681 12.623,25.661 C11.385,26.642 9.871,27.132 8.082,27.132 C6.230,27.132 4.725,26.755 3.564,26.001 C2.404,25.247 1.521,24.155 0.916,22.726 C0.310,21.296 0.008,19.761 0.008,18.120 C0.008,16.331 0.349,14.771 1.033,13.438 C1.717,12.107 2.689,11.095 3.951,10.403 C5.213,9.712 6.601,9.366 8.117,9.366 C9.836,9.366 11.281,9.804 12.453,10.679 C13.625,11.554 14.441,12.784 14.902,14.370 C14.902,14.370 12.664,14.897 12.664,14.897 C12.266,13.648 11.687,12.737 10.930,12.167 C10.172,11.597 9.219,11.311 8.070,11.311 C6.750,11.311 5.646,11.628 4.760,12.261 C3.873,12.894 3.250,13.743 2.891,14.810 C2.531,15.876 2.352,16.976 2.352,18.108 C2.352,19.569 2.564,20.845 2.990,21.935 C3.416,23.024 4.078,23.839 4.977,24.378 Z" id="path-1" class="cls-2" fill-rule="evenodd"/>
</svg>
