<svg xmlns="http://www.w3.org/2000/svg" xmlns:xlink="http://www.w3.org/1999/xlink" preserveAspectRatio="xMidYMid" width="16" height="12" viewBox="0 0 16 12">
  <defs>
    <style>

      .cls-2 {
        fill: #dcdcdc;
      }
    </style>
  </defs>
  <path d="M12.936,12.063 C10.780,12.063 2.156,12.063 2.156,12.063 C2.156,12.063 0.000,12.063 0.000,9.907 C0.000,7.751 0.000,2.145 0.000,2.145 C0.000,2.145 0.004,0.881 0.975,0.290 C0.705,0.722 0.559,1.222 0.559,1.746 C0.559,2.484 0.844,3.176 1.363,3.694 C1.363,3.694 5.597,7.929 5.597,7.929 C6.116,8.447 6.807,8.733 7.545,8.733 C8.283,8.733 8.975,8.447 9.493,7.929 C9.493,7.929 13.727,3.695 13.727,3.695 C14.639,2.783 14.774,1.388 14.139,0.330 C14.633,0.619 15.092,1.151 15.092,2.145 C15.092,4.301 15.092,9.907 15.092,9.907 C15.092,9.907 15.092,12.063 12.936,12.063 ZM8.985,7.421 C8.602,7.804 8.091,8.014 7.545,8.014 C6.999,8.014 6.488,7.804 6.105,7.421 C6.105,7.421 1.871,3.186 1.871,3.186 C1.488,2.803 1.277,2.292 1.277,1.746 C1.277,1.201 1.488,0.689 1.871,0.306 C1.871,0.306 2.188,-0.011 2.188,-0.011 C4.315,-0.011 12.342,-0.011 12.902,-0.011 C12.902,-0.011 13.220,0.306 13.220,0.306 C14.013,1.100 14.013,2.392 13.220,3.186 C13.220,3.186 8.985,7.421 8.985,7.421 Z" id="path-1" class="cls-2" fill-rule="evenodd"/>
</svg>
