<svg xmlns="http://www.w3.org/2000/svg" xmlns:xlink="http://www.w3.org/1999/xlink" preserveAspectRatio="xMidYMid" width="75" height="132" viewBox="0 0 75 132">
  <defs>
    <style>
      .cls-1 {
        fill: #005494;
        fill-rule: evenodd;
      }
    </style>
  </defs>
  <path d="M65.360,0.003 L9.635,0.003 C4.308,0.003 0.003,4.312 0.003,9.616 L0.003,122.387 C0.003,127.687 4.308,131.996 9.635,131.996 L65.355,131.996 C70.682,131.996 74.997,127.687 74.997,122.387 L74.997,9.616 C75.002,4.312 70.687,0.003 65.360,0.003 ZM23.745,5.844 L51.260,5.844 C51.955,5.844 52.515,6.877 52.515,8.164 C52.515,9.443 51.955,10.483 51.260,10.483 L23.745,10.483 C23.050,10.483 22.495,9.443 22.495,8.164 C22.495,6.877 23.050,5.844 23.745,5.844 ZM37.502,122.507 C34.105,122.507 31.345,119.761 31.345,116.370 C31.345,112.980 34.110,110.243 37.502,110.243 C40.890,110.243 43.655,112.989 43.655,116.370 C43.655,119.761 40.885,122.507 37.502,122.507 ZM67.778,101.485 L7.227,101.485 L7.227,16.225 L67.778,16.225 L67.778,101.485 Z" class="cls-1"/>
</svg>
