<svg xmlns="http://www.w3.org/2000/svg" xmlns:xlink="http://www.w3.org/1999/xlink" preserveAspectRatio="xMidYMid" width="191.906" height="148.06" viewBox="0 0 191.906 148.06">
  <defs>
    <style>
      .cls-1 {
        fill: #005494;
        fill-rule: evenodd;
      }
    </style>
  </defs>
  <path d="M141.394,146.314 L141.394,62.663 L191.908,62.663 L191.908,146.314 L141.394,146.314 ZM167.295,142.703 C168.901,142.703 170.210,141.414 170.210,139.830 C170.210,138.246 168.901,136.964 167.295,136.964 C165.682,136.964 164.381,138.253 164.381,139.830 C164.381,141.414 165.690,142.703 167.295,142.703 ZM167.773,66.127 C167.098,66.127 166.550,66.659 166.550,67.326 C166.550,67.987 167.098,68.532 167.773,68.532 C168.447,68.532 168.992,67.987 168.992,67.326 C168.992,66.662 168.447,66.127 167.773,66.127 ZM175.038,70.138 L160.508,70.138 L160.508,71.287 L175.038,71.287 L175.038,70.138 ZM183.803,75.395 L149.499,75.403 L149.499,132.918 C156.003,132.972 170.684,132.926 183.803,132.852 L183.803,75.395 ZM157.715,10.455 L37.185,10.455 L37.185,32.223 L26.565,32.223 L26.565,0.003 L168.337,0.003 L168.337,58.607 L157.715,58.607 L157.715,10.455 ZM75.198,148.051 L-0.014,148.051 L-0.014,36.972 L75.198,36.972 L75.198,148.051 ZM39.179,142.482 C41.182,142.482 42.811,140.871 42.806,138.906 C42.806,136.941 41.182,135.341 39.179,135.341 C37.177,135.341 35.556,136.941 35.556,138.906 C35.556,140.871 37.177,142.482 39.179,142.482 ZM10.863,47.676 L10.863,129.633 L64.326,129.633 L64.330,47.676 L10.863,47.676 ZM135.903,92.028 L80.046,92.028 L80.046,81.575 L135.903,81.575 L135.903,92.028 ZM99.461,96.308 L135.903,96.308 L135.903,111.145 L80.046,111.145 L80.046,105.418 L117.487,105.418 L117.487,102.645 L80.046,102.645 L80.046,96.308 L95.418,96.308 L99.461,96.308 Z" class="cls-1"/>
</svg>
